# xmcd
#
# Track frame offsets:
#	150
#	15165
#	27897
#	44032
#	66392
#	84502
#	100227
#	118187
#	132170
#	154435
#	172002
#	192992
#
# Disc length: 2743 seconds
#
# Revision: 1
# Processed by: cddbd v1.4PL0 Copyright (c) Steve Scherf et al.
# Submitted via: audiograbber 1.81.03
#
DISCID=a40ab50c
DTITLE=Ron Hacker and the Hacksaws - Burnin'
DYEAR=2003
DGENRE=Blues
TTITLE0=32/20
TTITLE1=Peach Tree Blues
TTITLE2=Stranger Blues
TTITLE3=Welfare Store
TTITLE4=Keep Your Hands Off Her
TTITLE5=Prison Mind
TTITLE6=Mailman Blues
TTITLE7=Almost Grown
TTITLE8=Broke And Hungry
TTITLE9=Red Cross Store
TTITLE10=Fool For Your Stockings
TTITLE11=Burnin'
EXTD=
EXTT0=
EXTT1=
EXTT2=
EXTT3=
EXTT4=
EXTT5=
EXTT6=
EXTT7=
EXTT8=
EXTT9=
EXTT10=
EXTT11=
PLAYORDER=
